{"title":"Big.Brother.AU.S11E47.PDTV.x264-NoGRP","uid":11430397,"size":460597831,"categoryP":"video","categoryS":"tv_shows","magnet":"?xt=urn:btih:602d46736e6c7fda96b208ee35fa717c10e03527&amp;dn=Big.Brother.AU.S11E47.PDTV.x264-NoGRP&amp;tr=udp%3A%2F%2Ftracker.openbittorrent.com%3A80&amp;tr=udp%3A%2F%2Fopen.demonii.com%3A1337&amp;tr=udp%3A%2F%2Ftracker.coppersurfer.tk%3A6969&amp;tr=udp%3A%2F%2Fexodus.desync.com%3A6969","seeders":1,"leechers":0,"uploader":"whowhatwhen2","files":1,"time":1415717388,"description":"Big.Brother.AU.S11E47.PDTV.x264-NoGRP.mp4\n\n\n\nFormat                                   : MPEG-4\nCodec ID                                 : mp42\nFile size                                : 439 MiB\nDuration                                 : 1h 3mn\nOverall bit rate mode                    : Variable\nOverall bit rate                         : 963 Kbps\n\n\nVideo\n\nFormat/Info                              : Advanced Video Codec\nFormat profile                           : &lt;a class=&quot;__cf_email__&quot; href=&quot;/cdn-cgi/l/email-protection&quot; data-cfemail=&quot;367e5f515e767a051807&quot;&gt;[email&amp;#160;protected]&lt;/a&gt;&lt;script cf-hash='f9e31' type=&quot;text/javascript&quot;&gt;\n/* &lt;![CDATA[ */!function(){try{var t=&quot;currentScript&quot;in document?document.currentScript:function(){for(var t=document.getElementsByTagName(&quot;script&quot;),e=t.length;e--;)if(t[e].getAttribute(&quot;cf-hash&quot;))return t[e]}();if(t&amp;&amp;t.previousSibling){var e,r,n,i,c=t.previousSibling,a=c.getAttribute(&quot;data-cfemail&quot;);if(a){for(e=&quot;&quot;,r=parseInt(a.substr(0,2),16),n=2;a.length-n;n+=2)i=parseInt(a.substr(n,2),16)^r,e+=String.fromCharCode(i);e=document.createTextNode(e),c.parentNode.replaceChild(e,c)}}}catch(u){}}();/* ]]&gt; */&lt;/script&gt;\nFormat settings, CABAC                   : Yes\nFormat settings, ReFrames                : 4 frames\nCodec ID                                 : avc1\nDuration                                 : 1h 3mn\nBit rate                                 : 798 Kbps\nWidth                                    : 720 pixels\nHeight                                   : 400 pixels\nDisplay aspect ratio                     : 16:9\nFrame rate mode                          : Variable\nFrame rate                               : 25.000 fps\nColor space                              : YUV\nChroma subsampling                       : 4:2:0\nBit depth                                : 8 bits\nScan type                                : Progressive\nBits/(Pixel*Frame)                       : 0.111\nStream size                              : 364 MiB (83%)\nWriting library                          : x264 core 130 r2273 b3065e6\n\nAudio\nID                                       : 2\nFormat                                   : AAC\nFormat/Info                              : Advanced Audio Codec\nDuration                                 : 1h 3mn\nBit rate mode                            : Variable\nBit rate                                 : 160 Kbps\nMaximum bit rate                         : 198 Kbps\nChannel(s)                               : 2 channels\nChannel positions                        : Front: L R\nSampling rate                            : 48.0 KHz\nCompression mode                         : Lossy\nStream size                              : 73.0 MiB (17%)\nLanguage                                 : English","torrent":{"xt":"urn:btih:602d46736e6c7fda96b208ee35fa717c10e03527","amp;dn":"Big.Brother.AU.S11E47.PDTV.x264-NoGRP","amp;tr":["udp%3A%2F%2Ftracker.openbittorrent.com%3A80","udp%3A%2F%2Fopen.demonii.com%3A1337","udp%3A%2F%2Ftracker.coppersurfer.tk%3A6969","udp%3A%2F%2Fexodus.desync.com%3A6969"],"infoHash":"602d46736e6c7fda96b208ee35fa717c10e03527","infoHashBuffer":{"type":"Buffer","data":[96,45,70,115,110,108,127,218,150,178,8,238,53,250,113,124,16,224,53,39]},"announce":[],"urlList":[]}}